<svg xmlns="http://www.w3.org/2000/svg" version="1.1" xmlns:xlink="http://www.w3.org/1999/xlink" xmlns:svgjs="http://svgjs.dev/svgjs" width="1500" height="223" viewBox="0 0 1500 223"><g transform="matrix(1,0,0,1,-0.9090909090909918,0.8324885903664523)"><svg viewBox="0 0 396 59" data-background-color="#0b022d" preserveAspectRatio="xMidYMid meet" height="223" width="1500" xmlns="http://www.w3.org/2000/svg" xmlns:xlink="http://www.w3.org/1999/xlink"><g id="tight-bounds" transform="matrix(1,0,0,1,0.2400000000000091,-0.22025482884134817)"><svg viewBox="0 0 395.52 59.44050965768267" height="59.44050965768267" width="395.52"><g><svg viewBox="0 0 395.52 59.44050965768267" height="59.44050965768267" width="395.52"><g><svg viewBox="0 0 462.41041791685666 69.4931" height="59.44050965768267" width="395.52"><g><svg viewBox="0 0 462.41041791685666 69.4931" height="69.4931" width="462.41041791685666"><g id="textblocktransform"><svg viewBox="0 0 462.41041791685666 69.4931" height="69.4931" width="462.41041791685666" id="textblock"><g><svg viewBox="0 0 462.41041791685666 69.4931" height="69.4931" width="462.41041791685666"><g><svg><g></g><g></g></svg></g><g><svg><g><svg></svg></g><g></g></svg></g><g id="text-0"><svg viewBox="0 0 462.41041791685666 69.4931" height="69.4931" width="462.41041791685666"><g transform="matrix(1,0,0,1,0,0)"><svg width="376.42769999999996" viewBox="0 -38.25 232.63 42.95" height="69.4931" data-palette-color="#f7fff7"><path d="M19.35-4.35L19.35-4.35Q19.9-4.15 20.58-4.15 21.25-4.15 21.88-4.3 22.5-4.45 23.03-5.03 23.55-5.6 23.85-5.95 24.15-6.3 24.6-7.5L24.6-7.5Q25.15-8.9 25.95-11.45L25.95-11.45Q28.05-9.5 28.45-8.5L28.45-8.5Q26.05 0.3 20 0.3L20 0.3Q17.15 0.3 12.75-3.4L12.75-3.4Q10.45 0.3 5.6 0.3L5.6 0.3Q3.45 0.3 1.73-1.15 0-2.6 0-5.3 0-8 1.8-9.73 3.6-11.45 6.45-11.45L6.45-11.45Q7-11.45 8-11.35L8-11.35 8.7-17.7Q6.5-17 1.9-15.9L1.9-15.9 1.9-19.65Q5.65-20.5 9.1-21.55L9.1-21.55 10.1-29.7Q11.15-38.05 18.6-38.05L18.6-38.05Q21.55-38.05 23.33-36.43 25.1-34.8 25.1-31.85L25.1-31.85Q25.1-24.75 15.95-20.4L15.95-20.4 14.45-8.6 14.4-8.1Q18.1-4.8 19.35-4.35ZM21.35-31.45L21.35-31.45Q21.35-33.55 19.6-33.55L19.6-33.55Q17.5-33.55 16.95-28.6L16.95-28.6 16.45-24.65Q21.35-27.55 21.35-31.45ZM3.8-5.65L3.8-5.65Q3.8-4.15 5.5-4.15L5.5-4.15Q7.15-4.15 7.55-7.1L7.55-7.1Q6.6-7.5 5.78-7.5 4.95-7.5 4.38-6.95 3.8-6.4 3.8-5.65ZM47.15-23.55L47.15-23.55Q45.1-7.35 45.1-6.3L45.1-6.3Q45.1-4.3 46.55-4.3L46.55-4.3Q47.85-4.3 49.37-6.08 50.9-7.85 51.8-11.4L51.8-11.4Q53.45-9.6 53.8-8.6L53.8-8.6Q52.65-3.75 50.15-1.75 47.65 0.25 45 0.25L45 0.25Q40.65 0.25 39.15-3.1L39.15-3.1Q36.55 0.25 32.2 0.25L32.2 0.25Q28.6 0.25 26.65-1.55 24.7-3.35 24.7-6.25L24.7-6.25Q24.7-6.95 24.95-8.7L24.95-8.7Q26.1-18 26.7-23.5L26.7-23.5Q28.25-24.05 29.55-24.05 30.85-24.05 31.5-23.95 32.15-23.85 32.75-23.2 33.35-22.55 33.35-21.35L33.35-21.35 31.7-8.6Q31.6-8 31.6-7.5L31.6-7.5Q31.6-4.55 34.3-4.55L34.3-4.55Q36.8-4.55 38.45-7L38.45-7Q38.45-7.55 38.55-8.75L38.55-8.75 40.2-22.05Q40.55-22.9 41.7-23.48 42.85-24.05 44.57-24.05 46.3-24.05 47.15-23.55ZM70.75 0L64.3 0 66.2-16.6Q66.2-18 65.52-18.93 64.84-19.85 63.15-19.85 61.45-19.85 60.34-18.23 59.25-16.6 58.95-14.8L58.95-14.8Q57.2-2.35 57 0L57 0 50.3 0 53.05-23.5Q55.15-24.05 56.25-24.05L56.25-24.05Q59.4-24.05 59.7-21.95L59.7-21.95Q62.15-24.05 65.05-24.05L65.05-24.05Q70.84-24.05 72.45-20.6L72.45-20.6Q74.9-24.1 79.45-24.1L79.45-24.1Q82.8-24.1 84.75-22.38 86.69-20.65 86.69-18.05L86.69-18.05Q86.69-17.3 86.4-15.4L86.4-15.4Q85.25-7.9 85.25-6.6L85.25-6.6Q85.25-4.25 86.8-4.25L86.8-4.25Q88.09-4.25 89.57-5.98 91.05-7.7 91.95-11.3L91.95-11.3Q93.65-9.5 94-8.45L94-8.45Q91.4 0.25 84.8 0.25L84.8 0.25Q81.69 0.25 80.2-1.65 78.7-3.55 78.7-5.65L78.7-5.65 79.9-16.7Q79.9-18.05 79.2-18.95 78.5-19.85 76.97-19.85 75.45-19.85 74.3-18.7 73.15-17.55 72.7-15.75L72.7-15.75Q71.2-3.05 70.75 0L70.75 0ZM94.19-36.83Q95.34-38 96.99-38 98.64-38 99.82-36.83 100.99-35.65 100.99-34 100.99-32.35 99.82-31.2 98.64-30.05 96.99-30.05 95.34-30.05 94.19-31.2 93.04-32.35 93.04-34 93.04-35.65 94.19-36.83ZM92.14-22.15Q92.64-23.05 94.04-23.53 95.44-24 96.82-24 98.19-24 99.24-23.65L99.24-23.65Q97.29-8.6 97.29-8.45L97.29-8.45Q97.04-7.45 97.04-6.78 97.04-6.1 97.14-5.6L97.14-5.6Q97.34-4.3 98.97-4.3 100.59-4.3 101.97-6.43 103.34-8.55 104.04-11.25L104.04-11.25Q104.39-11.05 105.14-10.05 105.89-9.05 106.04-8.55L106.04-8.55Q105.04-4.55 102.64-2.1L102.64-2.1Q100.24 0.35 96.89 0.35 93.54 0.35 91.92-1.3 90.29-2.95 90.29-5.55L90.29-5.55Q90.29-6.1 90.34-6.7L90.34-6.7 92.14-22.15ZM135.29-38.05L135.29-38.05Q137.64-38.05 139.02-36.68 140.39-35.3 140.39-33.2L140.39-33.2Q140.39-29.4 137.69-27 134.99-24.6 130.54-22.5L130.54-22.5Q126.94-13.2 121.94 0L121.94 0 113.64 0Q111.94-23.8 111.62-27.68 111.29-31.55 110.92-32.25 110.54-32.95 109.49-32.95L109.49-32.95Q106.84-32.95 104.04-23.6L104.04-23.6Q101.64-24.75 100.69-25.3L100.69-25.3Q103.24-33.55 106.49-36.35L106.49-36.35Q108.69-38.25 111.74-38.25L111.74-38.25Q114.49-38.25 115.99-36.45 117.49-34.65 117.99-29.45L117.99-29.45Q118.24-26.7 118.72-18.68 119.19-10.65 119.39-8.05L119.39-8.05 119.69-8.05 127.34-29.3Q128.99-33.95 130.14-35.45L130.14-35.45Q132.04-38.05 135.29-38.05ZM136.99-31.75L136.99-31.75Q136.99-32.4 136.59-32.8 136.19-33.2 135.52-33.2 134.84-33.2 134.37-32.15 133.89-31.1 132.29-27.05L132.29-27.05Q136.99-29.5 136.99-31.75ZM144.89-11.2Q147.99-11.85 149.51-13.7 151.04-15.55 151.04-17.28 151.04-19 150.11-19.63 149.19-20.25 148.09-20.25L148.09-20.25Q145.74-20.25 143.96-17.63 142.19-15 142.19-11.38 142.19-7.75 143.91-5.98 145.64-4.2 148.19-4.2L148.19-4.2Q151.94-4.2 155.39-6.8 158.84-9.4 160.99-13.6L160.99-13.6Q162.09-12.55 162.99-11L162.99-11Q161.34-7.25 157.14-3.65L157.14-3.65Q155.04-1.9 152.16-0.8 149.29 0.3 146.24 0.3L146.24 0.3Q141.24 0.3 138.34-2.75L138.34-2.75Q135.24-6.05 135.24-11.2 135.24-16.35 139.11-20.2 142.99-24.05 148.39-24.05L148.39-24.05Q152.24-24.05 154.64-22.38 157.04-20.7 157.09-17.85L157.09-17.85Q157.09-14 154.01-11.6 150.94-9.2 145.59-8.25L145.59-8.25 144.89-11.2ZM173.64-17.5L173.64-17.5Q173.64-19.7 171.61-19.7 169.59-19.7 168.39-17.1L168.39-17.1Q173.79-12.85 173.79-7.55L173.79-7.55Q173.79-3.7 171.64-1.7 169.49 0.3 166.24 0.3 162.99 0.3 161.49-1.73 159.99-3.75 159.99-6.85L159.99-6.85Q159.99-7.8 160.04-8.25L160.04-8.25 161.79-23.5Q163.59-24.05 165.44-24.05L165.44-24.05Q168.49-24.05 168.49-21.8L168.49-21.8 168.49-21.7Q170.49-24.05 173.59-24.05L173.59-24.05Q175.84-24.05 177.09-23.03 178.34-22 178.34-20.3 178.34-18.6 177.06-17.53 175.79-16.45 173.74-16.45L173.74-16.45Q173.64-16.45 173.54-16.45L173.54-16.45Q173.64-17 173.64-17.5ZM170.54-7.8Q170.54-10.7 167.54-13.6L167.54-13.6Q166.64-6.4 166.64-6.35L166.64-6.35Q166.64-4.25 168.34-4.25L168.34-4.25Q170.54-4.25 170.54-7.8L170.54-7.8ZM200.33-15.3L200.33-15.3Q204.28-12.4 204.28-8.45 204.28-4.5 201.18-2.1 198.08 0.3 193.38 0.3L193.38 0.3Q190.33 0.3 188.31-1.23 186.28-2.75 186.28-5 186.28-7.25 187.78-8.58 189.28-9.9 191.53-10.2L191.53-10.2Q190.48-8.7 190.48-7.33 190.48-5.95 191.43-5.1L191.43-5.1Q192.38-4.25 193.83-4.25 195.28-4.25 196.23-5.33 197.18-6.4 197.18-7.8L197.18-7.8Q197.18-10.1 195.03-11.9L195.03-11.9Q193.73-12.95 192.23-13.88 190.73-14.8 190.63-14.85L190.63-14.85Q190.43-15 190.23-15.1L190.23-15.1Q189.33-14.05 187.63-12.23 185.93-10.4 184.93-9.3L184.93-9.3Q182.13-6.25 181.78-4.2L181.78-4.2Q181.68-3.8 181.68-2.68 181.68-1.55 182.36-0.35 183.03 0.85 183.98 1.45 184.93 2.05 185.86 2.43 186.78 2.8 187.46 2.95 188.13 3.1 188.13 3.15L188.13 3.15Q188.13 3.5 187.03 3.95L187.03 3.95Q184.98 4.7 182.76 4.7 180.53 4.7 178.43 3.1L178.43 3.1Q175.58 0.9 175.58-2.75L175.58-2.75Q175.58-5 176.73-7.2L176.73-7.2Q178.78-11.1 186.33-17.9L186.33-17.9Q184.48-19.75 184.48-21.85 184.48-23.95 186.06-25.4 187.63-26.85 189.78-26.85L189.78-26.85Q191.73-26.85 193.18-25.3L193.18-25.3Q194.13-24.25 194.13-22.65 194.13-21.05 193.08-19.05L193.08-19.05Q198.43-16.65 200.33-15.3ZM189.48-20.95L189.48-20.95Q190.68-22.2 190.68-22.75L190.68-22.75Q190.68-24 189.58-24.1L189.58-24.1Q188.33-24.1 188.33-22.7L188.33-22.7Q188.33-21.85 189.48-20.95ZM214.53-11.2Q217.63-11.85 219.16-13.7 220.68-15.55 220.68-17.28 220.68-19 219.76-19.63 218.83-20.25 217.73-20.25L217.73-20.25Q215.38-20.25 213.61-17.63 211.83-15 211.83-11.38 211.83-7.75 213.56-5.98 215.28-4.2 217.83-4.2L217.83-4.2Q221.58-4.2 225.03-6.8 228.48-9.4 230.63-13.6L230.63-13.6Q231.73-12.55 232.63-11L232.63-11Q230.98-7.25 226.78-3.65L226.78-3.65Q224.68-1.9 221.81-0.8 218.93 0.3 215.88 0.3L215.88 0.3Q210.88 0.3 207.98-2.75L207.98-2.75Q204.88-6.05 204.88-11.2 204.88-16.35 208.76-20.2 212.63-24.05 218.03-24.05L218.03-24.05Q221.88-24.05 224.28-22.38 226.68-20.7 226.73-17.85L226.73-17.85Q226.73-14 223.66-11.6 220.58-9.2 215.23-8.25L215.23-8.25 214.53-11.2Z" opacity="1" transform="matrix(1,0,0,1,0,0)" fill="#f7fff7" class="wordmark-text-0" data-fill-palette-color="primary"></path></svg></g><g><svg xmlns="http://www.w3.org/2000/svg" xmlns:xlink="http://www.w3.org/1999/xlink" version="1.1" x="392.83459999999997" y="0" viewBox="5 5.053000000000001 90 89.893" enable-background="new 0 0 100 100" xml:space="preserve" height="69.4931" width="69.5758179168567" class="icon-cg-0" data-fill-palette-color="accent" id="cg-0"><g fill="#e3fff4" data-fill-palette-color="accent"><path d="M22.749 91.928c0 1.667-1.351 3.018-3.018 3.018H8.018C6.351 94.946 5 93.595 5 91.928V80.215c0-1.667 1.351-3.018 3.018-3.018h11.713c1.667 0 3.018 1.351 3.018 3.018V91.928z" fill="#e3fff4" data-fill-palette-color="accent"></path><path d="M95 65.807c0 4.789-3.882 8.671-8.671 8.671H33.946c-4.789 0-8.671-3.882-8.671-8.671V13.724c0-4.789 3.882-8.671 8.671-8.671h52.383c4.789 0 8.671 3.882 8.671 8.671V65.807zM84.347 17.733c0-1.119-0.907-2.026-2.026-2.026H37.955c-1.119 0-2.026 0.907-2.026 2.026v44.065c0 1.119 0.907 2.026 2.026 2.026h44.366c1.119 0 2.026-0.907 2.026-2.026V17.733z" fill="#e3fff4" data-fill-palette-color="accent"></path></g></svg></g></svg></g></svg></g></svg></g></svg></g><g></g></svg></g></svg></g><defs></defs></svg><rect width="395.52" height="59.44050965768267" fill="none" stroke="none" visibility="hidden"></rect></g></svg></g></svg>