<svg data-v-fde0c5aa="" xmlns="http://www.w3.org/2000/svg" viewBox="0 0 300 300" class="iconLeft"><!----><defs data-v-fde0c5aa=""><!----></defs><rect data-v-fde0c5aa="" fill="transparent" x="0" y="0" width="300px" height="300px" class="logo-background-square"></rect><defs data-v-fde0c5aa=""><!----></defs><g data-v-fde0c5aa="" id="f7db7d93-290d-44d4-8497-6c3451a55e00" fill="#000000" transform="matrix(3.0374003703691965,0,0,3.0374003703691965,96.73973335143275,125.62953482442518)"><path d="M0.97 10.40L0.95 10.39L0.95 10.39Q0.97 9.11 1.08 7.85L1.08 7.85L1.08 7.85Q1.19 6.59 1.30 5.32L1.30 5.32L1.30 5.32Q1.34 4.91 1.37 4.53L1.37 4.53L1.37 4.53Q1.40 4.14 1.48 3.75L1.48 3.75L1.48 3.75Q1.48 3.58 1.48 3.52L1.48 3.52L1.48 3.52Q1.47 3.46 1.48 3.44L1.48 3.44L1.48 3.44Q1.48 3.42 1.50 3.41L1.50 3.41L1.50 3.41Q1.51 3.40 1.54 3.35L1.54 3.35L1.54 3.35Q1.55 3.35 1.76 3.35L1.76 3.35L1.76 3.35Q1.96 3.36 2.19 3.37L2.19 3.37L2.19 3.37Q2.42 3.37 2.62 3.38L2.62 3.38L2.62 3.38Q2.81 3.39 2.84 3.39L2.84 3.39L2.84 3.39Q2.98 3.51 2.94 3.75L2.94 3.75L2.94 3.75Q2.90 3.99 2.88 4.17L2.88 4.17L2.88 4.17Q2.87 4.45 2.82 5.05L2.82 5.05L2.82 5.05Q2.77 5.66 2.70 6.41L2.70 6.41L2.70 6.41Q2.63 7.15 2.58 7.98L2.58 7.98L2.58 7.98Q2.52 8.81 2.49 9.53L2.49 9.53L2.49 9.53Q2.46 10.26 2.49 10.82L2.49 10.82L2.49 10.82Q2.52 11.37 2.63 11.58L2.63 11.58L2.63 11.58Q2.98 11.58 3.38 11.55L3.38 11.55L3.38 11.55Q3.78 11.52 4.18 11.49L4.18 11.49L4.18 11.49Q4.58 11.47 4.96 11.46L4.96 11.46L4.96 11.46Q5.35 11.45 5.68 11.51L5.68 11.51L5.74 11.58L5.74 11.58Q5.85 11.63 5.91 11.84L5.91 11.84L5.91 11.84Q5.96 12.04 5.96 12.26L5.96 12.26L5.96 12.26Q5.96 12.49 5.90 12.67L5.90 12.67L5.90 12.67Q5.84 12.85 5.70 12.85L5.70 12.85L5.70 12.85Q5.59 12.87 5.49 12.85L5.49 12.85L5.49 12.85Q5.39 12.84 5.28 12.82L5.28 12.82L5.28 12.82Q4.87 12.89 4.42 12.90L4.42 12.90L4.42 12.90Q3.98 12.91 3.56 12.94L3.56 12.94L3.56 12.94Q3.32 12.95 3.03 12.95L3.03 12.95L3.03 12.95Q2.74 12.95 2.45 12.94L2.45 12.94L2.45 12.94Q2.16 12.94 1.86 12.94L1.86 12.94L1.86 12.94Q1.57 12.94 1.34 12.95L1.34 12.95L1.34 12.95Q1.32 12.92 1.25 12.92L1.25 12.92L1.25 12.92Q1.18 12.91 1.10 12.91L1.10 12.91L1.10 12.91Q1.02 12.91 0.96 12.90L0.96 12.90L0.96 12.90Q0.90 12.89 0.88 12.85L0.88 12.85L0.88 12.85Q0.88 12.75 0.90 12.40L0.90 12.40L0.90 12.40Q0.91 12.04 0.92 11.63L0.92 11.63L0.92 11.63Q0.94 11.21 0.95 10.86L0.95 10.86L0.95 10.86Q0.97 10.51 0.97 10.40L0.97 10.40ZM7.20 7.17L7.20 7.17L7.20 7.17Q7.28 7.15 7.39 7.15L7.39 7.15L7.39 7.15Q7.49 7.14 7.57 7.11L7.57 7.11L7.57 7.11Q7.77 7.04 7.95 7.08L7.95 7.08L7.95 7.08Q8.12 7.11 8.27 7.18L8.27 7.18L8.27 7.18Q8.25 7.69 8.20 8.19L8.20 8.19L8.20 8.19Q8.16 8.69 8.12 9.18L8.12 9.18L8.12 9.18Q8.09 9.48 8.10 9.80L8.10 9.80L8.10 9.80Q8.11 10.12 8.15 10.42L8.15 10.42L8.15 10.42Q8.20 10.88 8.37 11.12L8.37 11.12L8.37 11.12Q8.54 11.37 8.77 11.45L8.77 11.45L8.77 11.45Q9.00 11.52 9.26 11.46L9.26 11.46L9.26 11.46Q9.52 11.40 9.75 11.24L9.75 11.24L9.75 11.24Q9.98 11.09 10.15 10.86L10.15 10.86L10.15 10.86Q10.32 10.64 10.39 10.39L10.39 10.39L10.39 10.39Q10.58 9.67 10.61 8.95L10.61 8.95L10.61 8.95Q10.64 8.23 10.67 7.52L10.67 7.52L10.67 7.18L10.67 7.18Q10.78 7.18 10.95 7.17L10.95 7.17L10.95 7.17Q11.12 7.15 11.28 7.16L11.28 7.16L11.28 7.16Q11.45 7.17 11.59 7.22L11.59 7.22L11.59 7.22Q11.73 7.27 11.77 7.39L11.77 7.39L11.77 7.39Q11.77 7.50 11.77 7.92L11.77 7.92L11.77 7.92Q11.76 8.33 11.75 8.89L11.75 8.89L11.75 8.89Q11.73 9.45 11.72 10.07L11.72 10.07L11.72 10.07Q11.70 10.70 11.68 11.23L11.68 11.23L11.68 11.23Q11.66 11.77 11.63 12.14L11.63 12.14L11.63 12.14Q11.59 12.50 11.55 12.54L11.55 12.54L11.55 12.54Q11.49 12.59 11.30 12.59L11.30 12.59L11.30 12.59Q11.12 12.60 11.03 12.61L11.03 12.61L11.03 12.61Q10.96 12.67 10.86 12.64L10.86 12.64L10.86 12.64Q10.75 12.61 10.67 12.61L10.67 12.61L10.67 12.61Q10.56 12.19 10.56 11.72L10.56 11.72L10.56 11.72Q10.18 12.12 9.69 12.41L9.69 12.41L9.69 12.41Q9.20 12.70 8.71 12.75L8.71 12.75L8.71 12.75Q8.23 12.81 7.81 12.56L7.81 12.56L7.81 12.56Q7.38 12.32 7.13 11.65L7.13 11.65L7.13 11.65Q6.87 10.98 6.88 10.26L6.88 10.26L6.88 10.26Q6.89 9.53 6.92 8.82L6.92 8.82L6.92 8.82Q6.92 8.68 6.94 8.45L6.94 8.45L6.94 8.45Q6.96 8.22 6.99 7.98L6.99 7.98L6.99 7.98Q7.01 7.74 7.07 7.52L7.07 7.52L7.07 7.52Q7.13 7.29 7.20 7.17ZM17.39 8.09L17.39 8.09L17.39 8.09Q17.75 7.67 18.21 7.37L18.21 7.37L18.21 7.37Q18.66 7.07 19.12 7.01L19.12 7.01L19.12 7.01Q19.57 6.94 19.98 7.18L19.98 7.18L19.98 7.18Q20.40 7.42 20.66 8.09L20.66 8.09L20.66 8.09Q20.93 8.75 20.95 9.48L20.95 9.48L20.95 9.48Q20.97 10.21 20.96 10.91L20.96 10.91L20.96 10.91Q20.96 11.05 20.94 11.29L20.94 11.29L20.94 11.29Q20.93 11.54 20.90 11.79L20.90 11.79L20.90 11.79Q20.87 12.05 20.82 12.29L20.82 12.29L20.82 12.29Q20.78 12.53 20.71 12.66L20.71 12.66L20.71 12.66Q20.61 12.67 20.52 12.68L20.52 12.68L20.52 12.68Q20.44 12.68 20.36 12.71L20.36 12.71L20.36 12.71Q20.16 12.78 19.98 12.71L19.98 12.71L19.98 12.71Q19.81 12.63 19.66 12.56L19.66 12.56L19.66 12.56Q19.67 11.58 19.74 10.56L19.74 10.56L19.74 10.56Q19.75 10.26 19.74 9.94L19.74 9.94L19.74 9.94Q19.73 9.62 19.68 9.32L19.68 9.32L19.68 9.32Q19.57 8.64 19.25 8.46L19.25 8.46L19.25 8.46Q18.93 8.27 18.59 8.51L18.59 8.51L18.59 8.51Q18.24 8.75 17.97 9.37L17.97 9.37L17.97 9.37Q17.70 9.98 17.68 10.91L17.68 10.91L17.68 10.91Q17.68 11.05 17.68 11.28L17.68 11.28L17.68 11.28Q17.67 11.51 17.64 11.75L17.64 11.75L17.64 11.75Q17.61 11.98 17.57 12.21L17.57 12.21L17.57 12.21Q17.53 12.43 17.46 12.56L17.46 12.56L17.46 12.56Q17.36 12.57 17.26 12.58L17.26 12.58L17.26 12.58Q17.16 12.59 17.07 12.61L17.07 12.61L17.07 12.61Q16.87 12.68 16.70 12.66L16.70 12.66L16.70 12.66Q16.53 12.63 16.38 12.56L16.38 12.56L16.38 12.56Q16.39 11.58 16.46 10.56L16.46 10.56L16.46 10.56Q16.48 10.26 16.46 9.94L16.46 9.94L16.46 9.94Q16.45 9.62 16.41 9.32L16.41 9.32L16.41 9.32Q16.34 8.86 16.18 8.62L16.18 8.62L16.18 8.62Q16.03 8.39 15.83 8.31L15.83 8.31L15.83 8.31Q15.62 8.23 15.41 8.30L15.41 8.30L15.41 8.30Q15.19 8.37 14.99 8.53L14.99 8.53L14.99 8.53Q14.80 8.69 14.65 8.92L14.65 8.92L14.65 8.92Q14.50 9.14 14.45 9.39L14.45 9.39L14.45 9.39Q14.29 10.11 14.27 10.83L14.27 10.83L14.27 10.83Q14.25 11.55 14.25 12.26L14.25 12.26L14.25 12.60L14.25 12.60Q14.14 12.60 13.97 12.62L13.97 12.62L13.97 12.62Q13.80 12.64 13.64 12.63L13.64 12.63L13.64 12.63Q13.47 12.63 13.33 12.59L13.33 12.59L13.33 12.59Q13.19 12.54 13.15 12.42L13.15 12.42L13.15 12.42Q13.15 12.31 13.14 11.88L13.14 11.88L13.14 11.88Q13.13 11.45 13.13 10.87L13.13 10.87L13.13 10.87Q13.13 10.29 13.13 9.63L13.13 9.63L13.13 9.63Q13.12 8.97 13.13 8.42L13.13 8.42L13.13 8.42Q13.15 7.87 13.17 7.48L13.17 7.48L13.17 7.48Q13.19 7.10 13.23 7.06L13.23 7.06L13.23 7.06Q13.27 7 13.46 7L13.46 7L13.46 7Q13.65 7 13.73 6.97L13.73 6.97L13.73 6.97Q13.80 6.92 13.91 6.94L13.91 6.94L13.91 6.94Q14.01 6.97 14.10 6.97L14.10 6.97L14.10 6.97Q14.15 7.17 14.19 7.50L14.19 7.50L14.19 7.50Q14.22 7.83 14.24 8.08L14.24 8.08L14.24 8.08Q14.59 7.67 15.03 7.37L15.03 7.37L15.03 7.37Q15.47 7.07 15.90 7.01L15.90 7.01L15.90 7.01Q16.32 6.94 16.72 7.18L16.72 7.18L16.72 7.18Q17.11 7.42 17.39 8.08L17.39 8.08L17.39 8.09ZM23.23 4.93L23.23 4.93L23.23 4.93Q23.49 5.07 23.58 5.31L23.58 5.31L23.58 5.31Q23.67 5.54 23.62 5.79L23.62 5.79L23.62 5.79Q23.56 6.03 23.39 6.22L23.39 6.22L23.39 6.22Q23.21 6.41 22.95 6.45L22.95 6.45L22.95 6.45Q22.57 6.51 22.34 6.32L22.34 6.32L22.34 6.32Q22.11 6.13 22.06 5.86L22.06 5.86L22.06 5.86Q22.01 5.59 22.14 5.30L22.14 5.30L22.14 5.30Q22.27 5.01 22.64 4.86L22.64 4.86L22.64 4.86Q22.83 4.77 22.97 4.82L22.97 4.82L22.97 4.82Q23.11 4.87 23.23 4.93ZM22.27 8.22L22.27 8.22L22.27 8.22Q22.27 8.09 22.29 7.88L22.29 7.88L22.29 7.88Q22.30 7.66 22.32 7.57L22.32 7.57L22.32 7.57Q22.40 7.57 22.62 7.55L22.62 7.55L22.62 7.55Q22.83 7.52 22.92 7.55L22.92 7.55L22.92 7.55Q23.06 7.56 23.20 7.60L23.20 7.60L23.20 7.60Q23.34 7.64 23.45 7.66L23.45 7.66L23.45 7.66Q23.48 7.78 23.49 8.16L23.49 8.16L23.49 8.16Q23.51 8.53 23.51 9.02L23.51 9.02L23.51 9.02Q23.51 9.51 23.50 10.06L23.50 10.06L23.50 10.06Q23.49 10.61 23.48 11.11L23.48 11.11L23.48 11.11Q23.46 11.61 23.45 11.98L23.45 11.98L23.45 11.98Q23.44 12.35 23.42 12.47L23.42 12.47L23.42 12.47Q23.41 12.60 23.23 12.65L23.23 12.65L23.23 12.65Q23.06 12.70 22.85 12.71L22.85 12.71L22.85 12.71Q22.64 12.71 22.44 12.69L22.44 12.69L22.44 12.69Q22.25 12.67 22.19 12.67L22.19 12.67L22.19 12.67Q22.19 12.54 22.20 12.20L22.20 12.20L22.20 12.20Q22.20 11.86 22.22 11.40L22.22 11.40L22.22 11.40Q22.23 10.93 22.24 10.42L22.24 10.42L22.24 10.42Q22.25 9.91 22.26 9.46L22.26 9.46L22.26 9.46Q22.27 9.00 22.27 8.67L22.27 8.67L22.27 8.67Q22.27 8.33 22.27 8.22ZM31.12 6.23L31.12 6.23L31.12 6.23Q31.04 6.50 30.93 6.75L30.93 6.75L30.93 6.75Q30.83 7 30.76 7.27L30.76 7.27L30.76 7.27Q30.44 8.40 30.11 9.53L30.11 9.53L30.11 9.53Q29.78 10.67 29.37 11.77L29.37 11.77L29.37 11.77Q29.34 11.83 29.29 11.99L29.29 11.99L29.29 11.99Q29.23 12.15 29.16 12.33L29.16 12.33L29.16 12.33Q29.09 12.50 29.03 12.66L29.03 12.66L29.03 12.66Q28.97 12.81 28.92 12.85L28.92 12.85L28.92 12.85Q28.88 12.85 28.67 12.89L28.67 12.89L28.67 12.89Q28.46 12.92 28.22 12.95L28.22 12.95L28.22 12.95Q27.97 12.98 27.76 12.99L27.76 12.99L27.76 12.99Q27.55 13.01 27.54 12.98L27.54 12.98L27.54 12.98Q27.47 12.88 27.40 12.69L27.40 12.69L27.40 12.69Q27.33 12.50 27.26 12.29L27.26 12.29L27.26 12.29Q27.19 12.08 27.13 11.89L27.13 11.89L27.13 11.89Q27.08 11.69 27.02 11.56L27.02 11.56L27.02 11.56Q26.88 11.24 26.65 10.61L26.65 10.61L26.65 10.61Q26.42 9.98 26.15 9.19L26.15 9.19L26.15 9.19Q25.89 8.40 25.61 7.53L25.61 7.53L25.61 7.53Q25.34 6.66 25.11 5.87L25.11 5.87L25.11 5.87Q24.88 5.08 24.73 4.45L24.73 4.45L24.73 4.45Q24.58 3.82 24.56 3.50L24.56 3.50L24.56 3.50Q24.63 3.42 24.80 3.37L24.80 3.37L24.80 3.37Q24.98 3.33 25.19 3.31L25.19 3.31L25.19 3.31Q25.40 3.29 25.58 3.30L25.58 3.30L25.58 3.30Q25.77 3.32 25.87 3.35L25.87 3.35L25.87 3.35Q25.96 3.43 26.01 3.58L26.01 3.58L26.01 3.58Q26.07 3.72 26.11 3.90L26.11 3.90L26.11 3.90Q26.15 4.07 26.19 4.28L26.19 4.28L26.19 4.28Q26.22 4.48 26.28 4.66L26.28 4.66L26.28 4.66Q26.39 5.04 26.48 5.36L26.48 5.36L26.48 5.36Q26.57 5.68 26.66 5.99L26.66 5.99L26.66 5.99Q26.75 6.30 26.84 6.62L26.84 6.62L26.84 6.62Q26.94 6.94 27.06 7.31L27.06 7.31L27.06 7.31Q27.30 8.02 27.52 8.71L27.52 8.71L27.52 8.71Q27.73 9.41 27.99 10.11L27.99 10.11L27.99 10.11Q28 10.16 28.04 10.26L28.04 10.26L28.04 10.26Q28.07 10.35 28.10 10.46L28.10 10.46L28.10 10.46Q28.14 10.58 28.17 10.71L28.17 10.71L28.25 10.43L28.25 10.43Q28.28 10.32 28.31 10.22L28.31 10.22L28.31 10.22Q28.34 10.12 28.36 10.08L28.36 10.08L28.36 10.08Q28.69 9.18 28.97 8.29L28.97 8.29L28.97 8.29Q29.25 7.39 29.57 6.50L29.57 6.50L29.57 6.50Q29.78 5.91 29.99 5.33L29.99 5.33L29.99 5.33Q30.21 4.76 30.41 4.17L30.41 4.17L30.41 4.17Q30.52 3.84 30.59 3.60L30.59 3.60L30.59 3.60Q30.66 3.36 30.80 3.04L30.80 3.04L30.80 3.04Q30.91 2.94 31.12 2.93L31.12 2.93L31.12 2.93Q31.33 2.93 31.55 2.98L31.55 2.98L31.55 2.98Q31.77 3.04 31.94 3.15L31.94 3.15L31.94 3.15Q32.12 3.26 32.16 3.42L32.16 3.42L32.16 3.42Q31.96 4.09 31.65 4.82L31.65 4.82L31.65 4.82Q31.35 5.56 31.12 6.23ZM36.68 12.19L36.68 12.19L36.68 12.19Q36.62 12.25 36.51 12.35L36.51 12.35L36.51 12.35Q36.40 12.45 36.33 12.49L36.33 12.49L36.33 12.49Q35.55 12.96 34.68 13.08L34.68 13.08L34.68 13.08Q33.81 13.20 33.07 12.93L33.07 12.93L33.07 12.93Q32.33 12.66 31.84 11.97L31.84 11.97L31.84 11.97Q31.36 11.28 31.36 10.15L31.36 10.15L31.36 10.15Q31.36 9.53 31.57 8.99L31.57 8.99L31.57 8.99Q31.78 8.44 32.16 7.97L32.16 7.97L32.16 7.97Q32.54 7.49 33.10 7.17L33.10 7.17L33.10 7.17Q33.67 6.86 34.27 6.80L34.27 6.80L34.27 6.80Q34.87 6.73 35.43 6.95L35.43 6.95L35.43 6.95Q35.98 7.17 36.34 7.74L36.34 7.74L36.34 7.74Q36.48 7.97 36.57 8.23L36.57 8.23L36.57 8.23Q36.65 8.48 36.67 8.75L36.67 8.75L36.67 8.75Q36.68 8.89 36.69 9.06L36.69 9.06L36.69 9.06Q36.71 9.23 36.68 9.37L36.68 9.37L36.68 9.37Q36.61 9.67 36.51 9.94L36.51 9.94L36.51 9.94Q36.47 10.05 36.26 10.13L36.26 10.13L36.26 10.13Q36.05 10.21 35.80 10.25L35.80 10.25L35.80 10.25Q35.55 10.29 35.31 10.31L35.31 10.31L35.31 10.31Q35.07 10.33 34.97 10.35L34.97 10.35L34.97 10.35Q34.41 10.40 33.86 10.42L33.86 10.42L33.86 10.42Q33.31 10.44 32.75 10.46L32.75 10.46L32.66 10.51L32.66 10.51Q32.62 10.67 32.66 10.82L32.66 10.82L32.66 10.82Q32.70 11.19 32.93 11.41L32.93 11.41L32.93 11.41Q33.15 11.63 33.45 11.76L33.45 11.76L33.45 11.76Q33.74 11.89 34.08 11.94L34.08 11.94L34.08 11.94Q34.41 11.98 34.69 11.98L34.69 11.98L34.69 11.98Q34.92 11.96 35.09 11.91L35.09 11.91L35.09 11.91Q35.27 11.87 35.45 11.77L35.45 11.77L35.45 11.77Q35.63 11.66 35.85 11.47L35.85 11.47L35.85 11.47Q36.06 11.28 36.37 10.96L36.37 10.96L36.37 10.96Q36.40 10.95 36.50 11.07L36.50 11.07L36.50 11.07Q36.60 11.20 36.70 11.36L36.70 11.36L36.70 11.36Q36.81 11.52 36.90 11.67L36.90 11.67L36.90 11.67Q36.99 11.82 37.00 11.84L37.00 11.84L37.00 11.84Q36.97 11.93 36.86 12.03L36.86 12.03L36.86 12.03Q36.75 12.14 36.68 12.19ZM35.59 9.37L35.59 9.37L35.59 9.37Q35.64 9.32 35.66 9.25L35.66 9.25L35.66 9.25Q35.69 9.18 35.69 9.11L35.69 9.11L35.69 9.11Q35.71 8.93 35.66 8.69L35.66 8.69L35.66 8.69Q35.60 8.44 35.50 8.29L35.50 8.29L35.50 8.29Q35.24 7.84 34.79 7.76L34.79 7.76L34.79 7.76Q34.34 7.67 33.89 7.86L33.89 7.86L33.89 7.86Q33.43 8.05 33.08 8.46L33.08 8.46L33.08 8.46Q32.73 8.86 32.68 9.41L32.68 9.41L32.68 9.41Q32.75 9.49 32.86 9.52L32.86 9.52L32.86 9.52Q32.89 9.53 33.08 9.53L33.08 9.53L33.08 9.53Q33.28 9.52 33.56 9.51L33.56 9.51L33.56 9.51Q33.85 9.49 34.19 9.47L34.19 9.47L34.19 9.47Q34.52 9.45 34.82 9.44L34.82 9.44L34.82 9.44Q35.11 9.42 35.33 9.40L35.33 9.40L35.33 9.40Q35.55 9.38 35.59 9.37ZM41.89 7.92L41.89 7.92L41.89 7.92Q41.78 7.94 41.68 7.93L41.68 7.93L41.68 7.93Q41.58 7.92 41.48 7.92L41.48 7.92L41.48 7.92Q41.45 7.91 41.38 7.91L41.38 7.91L41.38 7.91Q41.30 7.91 41.27 7.92L41.27 7.92L41.27 7.92Q40.89 8.02 40.57 8.23L40.57 8.23L40.57 8.23Q40.25 8.44 39.99 8.71L39.99 8.71L39.99 8.71Q39.73 8.99 39.54 9.29L39.54 9.29L39.54 9.29Q39.34 9.59 39.21 9.86L39.21 9.86L39.21 9.86Q39.21 10.09 39.22 10.49L39.22 10.49L39.22 10.49Q39.23 10.88 39.23 11.29L39.23 11.29L39.23 11.29Q39.23 11.70 39.21 12.08L39.21 12.08L39.21 12.08Q39.20 12.45 39.16 12.66L39.16 12.66L39.16 12.66Q39.13 12.78 38.97 12.83L38.97 12.83L38.97 12.83Q38.81 12.88 38.61 12.89L38.61 12.89L38.61 12.89Q38.42 12.89 38.22 12.88L38.22 12.88L38.22 12.88Q38.02 12.87 37.93 12.85L37.93 12.85L37.93 12.85Q37.93 11.49 37.95 10.16L37.95 10.16L37.95 10.16Q37.97 8.82 37.97 7.46L37.97 7.46L37.97 7.46Q37.97 7.31 37.98 7.15L37.98 7.15L37.98 7.15Q38.00 6.99 38.01 6.82L38.01 6.82L38.01 6.82Q38.14 6.82 38.32 6.79L38.32 6.79L38.32 6.79Q38.50 6.76 38.61 6.79L38.61 6.79L38.61 6.79Q38.78 6.83 38.91 6.94L38.91 6.94L38.91 6.94Q39.05 7.04 39.17 7.28L39.17 7.28L39.17 7.28Q39.21 7.46 39.21 7.66L39.21 7.66L39.21 7.66Q39.21 7.85 39.23 8.04L39.23 8.04L39.24 8.04L39.24 8.04Q39.44 7.85 39.66 7.63L39.66 7.63L39.66 7.63Q39.87 7.41 40.18 7.23L40.18 7.23L40.18 7.23Q40.49 7.06 40.91 6.97L40.91 6.97L40.91 6.97Q41.33 6.89 41.93 6.99L41.93 6.99L41.93 6.99Q42 7.04 42.01 7.17L42.01 7.17L42.01 7.17Q42.03 7.31 42.01 7.46L42.01 7.46L42.01 7.46Q41.99 7.60 41.95 7.74L41.95 7.74L41.95 7.74Q41.92 7.87 41.89 7.92ZM46.82 10.05L46.82 10.05L46.82 10.05Q47.05 10.22 47.10 10.38L47.10 10.38L47.10 10.38Q47.15 10.54 47.21 10.81L47.21 10.81L47.21 10.81Q47.29 11.23 47.17 11.56L47.17 11.56L47.17 11.56Q47.05 11.89 46.79 12.12L46.79 12.12L46.79 12.12Q46.52 12.36 46.16 12.53L46.16 12.53L46.16 12.53Q45.79 12.70 45.40 12.79L45.40 12.79L45.40 12.79Q45.01 12.88 44.62 12.92L44.62 12.92L44.62 12.92Q44.23 12.96 43.92 12.95L43.92 12.95L43.92 12.95Q43.43 12.92 42.99 12.76L42.99 12.76L42.99 12.76Q42.56 12.60 42.14 12.36L42.14 12.36L42.14 12.36Q42.18 12.24 42.21 12.07L42.21 12.07L42.21 12.07Q42.24 11.90 42.28 11.72L42.28 11.72L42.28 11.72Q42.32 11.55 42.39 11.40L42.39 11.40L42.39 11.40Q42.46 11.24 42.57 11.13L42.57 11.13L42.78 11.30L42.78 11.30Q42.88 11.40 43.04 11.51L43.04 11.51L43.04 11.51Q43.19 11.62 43.37 11.71L43.37 11.71L43.37 11.71Q43.54 11.80 43.72 11.86L43.72 11.86L43.72 11.86Q43.89 11.91 44.03 11.91L44.03 11.91L44.03 11.91Q44.91 11.94 45.42 11.71L45.42 11.71L45.42 11.71Q45.93 11.48 45.92 11.10L45.92 11.10L45.92 11.10Q45.92 10.93 45.75 10.82L45.75 10.82L45.75 10.82Q45.58 10.71 45.47 10.65L45.47 10.65L45.47 10.65Q45.09 10.49 44.60 10.40L44.60 10.40L44.60 10.40Q44.10 10.32 43.67 10.16L43.67 10.16L43.67 10.16Q43.23 10.01 42.93 9.70L42.93 9.70L42.93 9.70Q42.63 9.39 42.63 8.76L42.63 8.76L42.63 8.76Q42.63 8.36 42.84 8.03L42.84 8.03L42.84 8.03Q43.05 7.70 43.39 7.45L43.39 7.45L43.39 7.45Q43.74 7.20 44.17 7.03L44.17 7.03L44.17 7.03Q44.60 6.86 45.05 6.77L45.05 6.77L45.05 6.77Q45.50 6.68 45.92 6.69L45.92 6.69L45.92 6.69Q46.34 6.69 46.66 6.79L46.66 6.79L46.66 6.79Q46.73 6.82 46.86 6.86L46.86 6.86L46.86 6.86Q46.98 6.90 47.05 6.94L47.05 6.94L47.05 6.94Q47.11 7.10 47.04 7.20L47.04 7.20L47.04 7.20Q46.97 7.31 46.94 7.46L46.94 7.46L46.94 7.46Q46.91 7.49 46.90 7.56L46.90 7.56L46.90 7.56Q46.89 7.63 46.87 7.71L46.87 7.71L46.87 7.71Q46.86 7.78 46.85 7.85L46.85 7.85L46.85 7.85Q46.84 7.92 46.82 7.92L46.82 7.92L46.82 7.92Q46.68 7.94 46.53 7.91L46.53 7.91L46.53 7.91Q46.38 7.88 46.23 7.87L46.23 7.87L46.23 7.87Q45.92 7.84 45.57 7.85L45.57 7.85L45.57 7.85Q45.22 7.85 44.89 7.94L44.89 7.94L44.89 7.94Q44.56 8.02 44.28 8.20L44.28 8.20L44.28 8.20Q44.00 8.39 43.85 8.71L43.85 8.71L43.83 8.74L43.83 8.74Q43.85 8.88 43.94 9.00L43.94 9.00L43.94 9.00Q44.03 9.11 44.16 9.20L44.16 9.20L44.16 9.20Q44.30 9.28 44.44 9.34L44.44 9.34L44.44 9.34Q44.58 9.39 44.70 9.41L44.70 9.41L44.70 9.41Q45.02 9.45 45.35 9.51L45.35 9.51L45.35 9.51Q45.67 9.58 45.95 9.67L45.95 9.67L45.95 9.67Q46.24 9.76 46.47 9.86L46.47 9.86L46.47 9.86Q46.69 9.95 46.82 10.05ZM53.42 12.19L53.42 12.19L53.42 12.19Q53.37 12.25 53.26 12.35L53.26 12.35L53.26 12.35Q53.14 12.45 53.07 12.49L53.07 12.49L53.07 12.49Q52.29 12.96 51.42 13.08L51.42 13.08L51.42 13.08Q50.55 13.20 49.81 12.93L49.81 12.93L49.81 12.93Q49.07 12.66 48.59 11.97L48.59 11.97L48.59 11.97Q48.10 11.28 48.10 10.15L48.10 10.15L48.10 10.15Q48.10 9.53 48.31 8.99L48.31 8.99L48.31 8.99Q48.52 8.44 48.90 7.97L48.90 7.97L48.90 7.97Q49.28 7.49 49.85 7.17L49.85 7.17L49.85 7.17Q50.41 6.86 51.02 6.80L51.02 6.80L51.02 6.80Q51.62 6.73 52.17 6.95L52.17 6.95L52.17 6.95Q52.72 7.17 53.09 7.74L53.09 7.74L53.09 7.74Q53.23 7.97 53.31 8.23L53.31 8.23L53.31 8.23Q53.40 8.48 53.41 8.75L53.41 8.75L53.41 8.75Q53.42 8.89 53.44 9.06L53.44 9.06L53.44 9.06Q53.45 9.23 53.42 9.37L53.42 9.37L53.42 9.37Q53.35 9.67 53.26 9.94L53.26 9.94L53.26 9.94Q53.21 10.05 53.00 10.13L53.00 10.13L53.00 10.13Q52.79 10.21 52.54 10.25L52.54 10.25L52.54 10.25Q52.29 10.29 52.05 10.31L52.05 10.31L52.05 10.31Q51.81 10.33 51.72 10.35L51.72 10.35L51.72 10.35Q51.16 10.40 50.60 10.42L50.60 10.42L50.60 10.42Q50.05 10.44 49.49 10.46L49.49 10.46L49.41 10.51L49.41 10.51Q49.36 10.67 49.41 10.82L49.41 10.82L49.41 10.82Q49.45 11.19 49.67 11.41L49.67 11.41L49.67 11.41Q49.90 11.63 50.19 11.76L50.19 11.76L50.19 11.76Q50.48 11.89 50.82 11.94L50.82 11.94L50.82 11.94Q51.16 11.98 51.44 11.98L51.44 11.98L51.44 11.98Q51.66 11.96 51.84 11.91L51.84 11.91L51.84 11.91Q52.01 11.87 52.19 11.77L52.19 11.77L52.19 11.77Q52.37 11.66 52.59 11.47L52.59 11.47L52.59 11.47Q52.81 11.28 53.12 10.96L53.12 10.96L53.12 10.96Q53.14 10.95 53.24 11.07L53.24 11.07L53.24 11.07Q53.34 11.20 53.45 11.36L53.45 11.36L53.45 11.36Q53.55 11.52 53.64 11.67L53.64 11.67L53.64 11.67Q53.73 11.82 53.75 11.84L53.75 11.84L53.75 11.84Q53.72 11.93 53.61 12.03L53.61 12.03L53.61 12.03Q53.49 12.14 53.42 12.19ZM52.33 9.37L52.33 9.37L52.33 9.37Q52.39 9.32 52.41 9.25L52.41 9.25L52.41 9.25Q52.43 9.18 52.43 9.11L52.43 9.11L52.43 9.11Q52.46 8.93 52.40 8.69L52.40 8.69L52.40 8.69Q52.35 8.44 52.25 8.29L52.25 8.29L52.25 8.29Q51.98 7.84 51.53 7.76L51.53 7.76L51.53 7.76Q51.09 7.67 50.63 7.86L50.63 7.86L50.63 7.86Q50.18 8.05 49.83 8.46L49.83 8.46L49.83 8.46Q49.48 8.86 49.42 9.41L49.42 9.41L49.42 9.41Q49.49 9.49 49.60 9.52L49.60 9.52L49.60 9.52Q49.63 9.53 49.83 9.53L49.83 9.53L49.83 9.53Q50.02 9.52 50.31 9.51L50.31 9.51L50.31 9.51Q50.60 9.49 50.93 9.47L50.93 9.47L50.93 9.47Q51.27 9.45 51.56 9.44L51.56 9.44L51.56 9.44Q51.86 9.42 52.07 9.40L52.07 9.40L52.07 9.40Q52.29 9.38 52.33 9.37Z"></path></g><defs data-v-fde0c5aa=""><linearGradient data-v-fde0c5aa="" gradientTransform="rotate(25)" id="6dca43e9-b903-4b42-9cc9-17f926e4bc7a" x1="0%" y1="0%" x2="100%" y2="0%"><stop data-v-fde0c5aa="" offset="0%" stop-color="#006678" stop-opacity="1"></stop><stop data-v-fde0c5aa="" offset="100%" stop-color="#4FA8FF" stop-opacity="1"></stop></linearGradient></defs><g data-v-fde0c5aa="" id="1b7e8220-5a17-4a95-abfe-a66fccfa8e9b" stroke="none" fill="url(#6dca43e9-b903-4b42-9cc9-17f926e4bc7a)" transform="matrix(1.4503951769648185,0,0,1.4503951769648185,40,126.79367716856291)"><path d="M16 32c8.837 0 16-7.163 16-16S24.837 0 16 0 0 7.163 0 16s7.163 16 16 16zM14.817 6.421h2v8.886h8.887v2H14.817V6.421zm-5.959.437h2v14.283h14.283v2H8.858V6.858z"></path></g><!----></svg>